<?xml version="1.0" encoding="UTF-8" standalone="no"?>
<svg
   xmlns:dc="http://purl.org/dc/elements/1.1/"
   xmlns:cc="http://creativecommons.org/ns#"
   xmlns:rdf="http://www.w3.org/1999/02/22-rdf-syntax-ns#"
   xmlns:svg="http://www.w3.org/2000/svg"
   xmlns="http://www.w3.org/2000/svg"
   id="svg8"
   version="1.1"
   viewBox="0 0 70.423268 70.42326"
   height="100.60467mm"
   width="100.60467mm">
  <defs
     id="defs2" />
  <g
     transform="translate(-104.22785,-45.507923)"
     id="layer1">
    <path
       id="path4544"
       d="m 122.99401,114.18985 c -4.32897,-0.9404 -7.58044,-3.47848 -8.71251,-6.80095 -0.78921,-2.31618 -0.67682,-6.07238 0.33363,-11.150598 0.48507,-2.437836 0.88169,-5.347843 0.88139,-6.466688 -9.8e-4,-3.718098 -1.71106,-5.735418 -5.1001,-6.016462 l -1.9549,-0.162116 v -2.392655 -2.392657 l 1.85208,-0.250855 c 2.70243,-0.366031 3.74441,-1.02838 4.57629,-2.908984 0.61121,-1.381726 0.68884,-2.068648 0.50552,-4.472869 -0.11913,-1.562244 -0.53527,-4.348568 -0.92477,-6.191832 -0.98954,-4.682868 -0.94822,-8.485471 0.11707,-10.773163 1.56862,-3.368589 5.43705,-5.854553 9.93248,-6.382903 l 1.93299,-0.227185 v 2.518015 2.518015 h -1.29973 c -1.77186,0 -4.2497,1.262413 -4.8835,2.488054 -0.60797,1.175674 -0.65405,2.864146 -0.15834,5.802223 0.78343,4.643508 1.04707,9.098344 0.67592,11.421636 -0.42464,2.658142 -1.97477,5.796328 -3.6791,7.448236 l -1.18012,1.143813 1.61497,1.982752 c 1.99051,2.443801 2.76458,4.148744 3.24284,7.142561 0.37835,2.368341 0.0844,7.282673 -0.67072,11.213982 -1.05359,5.48514 0.1623,7.65141 4.66209,8.30613 l 1.67569,0.24382 v 2.44782 c 0,2.79211 0.17086,2.69708 -3.43917,1.91286 z"
       style="fill:#3b82f6;stroke-width:0.35277775" />
    <path
       id="path4546"
       d="m 152.2304,112.24932 v -2.42987 l 2.04969,-0.42336 c 2.26276,-0.46736 4.054,-1.8634 4.45842,-3.47475 0.1274,-0.50758 -0.11267,-3.16398 -0.53347,-5.90311 -1.37183,-8.929552 -0.6114,-13.537042 2.85482,-17.297452 l 1.48237,-1.60818 -1.1108,-1.26512 c -3.97855,-4.53132 -4.66885,-8.552208 -3.15364,-18.369547 0.76342,-4.946305 0.76409,-4.994322 0.087,-6.173611 -0.79713,-1.388278 -3.28385,-2.776033 -4.97438,-2.776033 h -1.15997 v -2.469445 c 0,-2.811057 -0.0583,-2.773846 3.24583,-2.072788 3.9645,0.841179 6.80448,2.853272 8.27787,5.864775 0.84544,1.728026 0.97275,2.400136 0.94911,5.010889 -0.015,1.658349 -0.35758,4.682054 -0.76125,6.719346 -1.49867,7.563594 -1.3651,9.576204 0.7654,11.532814 0.98915,0.90842 1.64012,1.17274 3.37032,1.36849 l 2.14439,0.24261 v 2.42387 2.42388 l -1.6757,7.1e-4 c -2.1517,7e-4 -3.9323,0.90924 -4.83869,2.46889 -0.95194,1.63803 -0.89239,5.20675 0.17364,10.40695 0.90648,4.421902 1.05253,8.458452 0.3882,10.728752 -0.70059,2.39406 -3.81995,5.29609 -6.74745,6.27718 -1.26118,0.42266 -2.96775,0.87096 -3.79236,0.99623 l -1.49931,0.22775 z"
       style="fill:#3b82f6;stroke-width:0.35277778" />
    <path
       id="path4548"
       d="m 131.74239,108.26592 c -1.02163,-1.2988 -0.87294,-3.53652 0.38087,-5.73185 0.92776,-1.62446 4.80862,-6.948549 7.61066,-10.440949 l 1.13094,-1.40958 -1.80213,-5.22523 c -2.02147,-5.86123 -2.0098,-5.97467 0.65581,-6.37225 l 1.46834,-0.219 1.64076,3.3506 c 0.90242,1.84283 1.76982,3.35061 1.92755,3.35061 0.15774,0 1.77489,-1.75542 3.59368,-3.90092 3.15918,-3.72667 3.35688,-3.89165 4.42591,-3.69334 0.64552,0.11974 1.21858,0.0465 1.35432,-0.17316 0.31818,-0.51481 1.23083,0.24704 1.23083,1.02746 0,0.32009 -0.45438,1.13409 -1.00972,1.80888 -2.26771,2.75549 -7.10417,9.27155 -7.10417,9.5713 0,0.17685 0.97502,2.45302 2.16671,5.05816 l 2.1667,4.736609 -0.65823,0.98459 c -0.36203,0.54152 -0.66236,1.12603 -0.6674,1.29891 -0.005,0.17288 -0.27769,0.48371 -0.60588,0.69073 -0.83174,0.52464 -1.44656,-0.11541 -3.9894,-4.153119 -1.16417,-1.84856 -2.23163,-3.36491 -2.37215,-3.36967 -0.31309,-0.0106 -3.7911,5.131969 -6.47955,9.580639 -2.37093,3.92324 -1.93885,3.4204 -3.26614,3.80106 -0.95533,0.27398 -1.19348,0.19843 -1.79831,-0.57048 z"
       style="fill:#3b82f6;stroke-width:0.35277775" />
    <path
       id="path4550"
       d="m 131.98567,83.677091 c -2.15148,-3.8472 -6.0183,-9.42829 -7.57842,-10.93815 -0.79252,-0.76698 -1.44094,-1.57494 -1.44094,-1.79546 0,-0.6016 1.61695,-1.21975 3.19058,-1.21975 1.69822,0 3.49597,1.47777 5.0997,4.19203 0.58208,0.98515 1.15641,1.79434 1.27629,1.79819 0.11988,0.004 0.80873,-1.65116 1.53078,-3.67779 1.5464,-4.34039 5.62351,-12.777999 7.22453,-14.951229 1.3726,-1.86316 3.42936,-2.865165 5.90274,-2.875676 3.23375,-0.01374 3.24268,0.130067 0.20474,3.296663 -4.63599,4.832327 -6.76321,8.809632 -11.25155,21.037252 -1.24637,3.39549 -2.39032,6.47895 -2.54212,6.85214 -0.23022,0.56597 -0.49833,0.28096 -1.61633,-1.71822 z"
       style="fill:#3b82f6;stroke-width:0.35277775" />
  </g>
</svg>
